# AST/ASF file generated using VICON BodyLanguage
# -----------------------------------------------
:version 1.10
:name VICON
:units
  mass 1.0
  length 0.45
  angle deg
:documentation
   .ast/.asf automatically generated from VICON data using
   VICON BodyBuilder and BodyLanguage model FoxedUp or BRILLIANT.MOD
:root
   order TX TY TZ RX RY RZ
   axis XYZ
   position 0 0 0  
   orientation 0 0 0 
:bonedata
  begin
     id 1 
     name lhipjoint
     direction 0.64773 -0.699417 0.302095 
     length 2.48597 
     axis 0 0 0  XYZ
  end
  begin
     id 2 
     name lfemur
     direction 0.34202 -0.939693 0  
     length 6.71947  
     axis 0 0 20  XYZ
    dof rx ry rz
    limits (-160.0 20.0)
           (-70.0 70.0)
           (-60.0 70.0)
  end
  begin
     id 3 
     name ltibia
     direction 0.34202 -0.939693 0   
     length 8.08777   
     axis 0 0 20   XYZ
    dof rx
    limits (-10.0 170.0)
  end
  begin
     id 4 
     name lfoot
     direction 0.0808503 -0.222134 0.971658   
     length 2.08264   
     axis -90 7.62852e-016 20   XYZ
    dof rx rz
    limits (-45.0 90.0)
           (-70.0 20.0)
  end
  begin
     id 5 
     name ltoes
     direction 1.53502e-011 -4.22007e-011 1   
     length 1.04662   
     axis -90 7.62852e-016 20   XYZ
    dof rx
    limits (-90.0 20.0)
  end
  begin
     id 6 
     name rhipjoint
     direction -0.610924 -0.726792 0.313919   
     length 2.39233  
     axis 0 0 0  XYZ 
  end
  begin
     id 7 
     name rfemur
     direction -0.34202 -0.939693 0   
     length 6.96955   
     axis 0 0 -20   XYZ
    dof rx ry rz
    limits (-160.0 20.0)
           (-70.0 70.0)
           (-70.0 60.0)
  end
  begin
     id 8 
     name rtibia
     direction -0.34202 -0.939693 0   
     length 8.19584   
     axis 0 0 -20   XYZ
    dof rx
    limits (-10.0 170.0)
 end
 begin
     id 9 
     name rfoot
     direction -0.077777 -0.213691 0.9738   
     length 2.07539  
     axis -90 -7.62852e-016 -20   XYZ
    dof rx rz
    limits (-45.0 90.0)
           (-20.0 70.0)
  end
  begin
     id 10 
     name rtoes
     direction -1.53558e-011 -4.22006e-011 1   
     length 1.04381   
     axis -90 -7.62852e-016 -20   XYZ
    dof rx
    limits (-90.0 20.0)
  end
  begin
     id 11 
     name lowerback
     direction -0.00971646 0.996074 0.0879841   
     length 1.67643   
     axis 0 0 0   XYZ
    dof rx ry rz
    limits (-20.0 45.0)
           (-30.0 30.0)
           (-30.0 30.0)
  end
  begin
     id 12 
     name upperback
     direction 0.0127391 0.991676 0.128127   
     length 1.63741   
     axis 0 0 0   XYZ
    dof rx ry rz
    limits (-20.0 45.0)
           (-30.0 30.0)
           (-30.0 30.0)
  end
  begin
     id 13 
     name thorax
     direction 0.0167583 0.996049 0.0872067   
     length 1.65931   
     axis 0 0 0   XYZ
    dof rx ry rz
    limits (-20.0 45.0)
           (-30.0 30.0)
           (-30.0 30.0)
  end
  begin
     id 14 
     name lowerneck
     direction -0.0317829 0.998312 0.0486079   
     length 1.79021   
     axis 0 0 0   XYZ
    dof rx ry rz
    limits (-20.0 45.0)
           (-30.0 30.0)
           (-30.0 30.0)
  end
  begin
     id 15 
     name upperneck
     direction 0.0896851 0.972452 -0.215159   
     length 1.78797   
     axis 0 0 0   XYZ
    dof rx ry rz
    limits (-20.0 45.0)
           (-30.0 30.0)
           (-30.0 30.0)
  end
  begin
     id 16
     name head
     direction 0.0310949 0.996503 -0.0775582  
     length 1.81549  
     axis 0 0 0   XYZ
    dof rx ry rz
    limits (-20.0 45.0)
           (-30.0 30.0)
           (-30.0 30.0)
  end
  begin
     id 17 
     name lclavicle
     direction 0.853638 0.502051 -0.138733  
     length 3.31627  
     axis 0 0 0   XYZ
    dof ry rz
    limits (-20.0 10.0)
           (0.0 20.0)
  end
  begin
     id 18 
     name lhumerus
     direction 1 -4.48962e-011 -1.41788e-018   
     length 5.54893   
     axis 180 -30 -90   XYZ
    dof rx ry rz
    limits (-60.0 90.0)
           (-90.0 90.0)
           (-90.0 90.0)
  end
  begin
     id 19
     name lradius
     direction 1 -4.48962e-011 -4.95754e-027   
     length 3.02898   
     axis 180 -30 -90   XYZ
    dof rx
    limits (-10.0 170.0)
  end
  begin
     id 20
     name lwrist
     direction 1 -4.48952e-011 -1.03764e-026   
     length 1.51449   
     axis 9.09556e-015 90 90   XYZ
    dof ry
    limits (-180.0 0.0)
 end
  begin
     id 21 
     name lhand
     direction 1 -4.4902e-011 -2.07528e-026   
     length 0.640951   
     axis 1.3242e-014 90 90   XYZ
    dof rx rz
    limits (-90.0 90.0)
           (-45.0 45.0)
  end
  begin
     id 22 
     name lfingers
     direction 1 -4.49014e-011 -4.15056e-026   
     length 0.516751   
     axis 2.64841e-014 90 90   XYZ
    dof rx
    limits (0.0 90.0)
  end
  begin
     id 23
     name lthumb
     direction 0.707107 -6.35008e-011 0.707107   
     length 0.741954   
     axis -90 45 2.85299e-015   XYZ
    dof rx rz
    limits (-45.0 45.0)
           (-45.0 45.0)
  end
  begin
     id 24 
     name rclavicle
     direction -0.888531 0.455324 -0.0565039   
     length 3.20126  
     axis 0 0 0   XYZ 
    dof ry rz
    limits (-10.0 20.0)
           (-20.0 0.0)
  end
  begin
     id 25 
     name rhumerus
     direction -1 -4.48946e-011 -8.98298e-028  
     length 5.3519   
     axis 180 30 90   XYZ
    dof rx ry rz
    limits (-90.0 60.0)
           (-90.0 90.0)
           (-90.0 90.0)
  end
  begin
     id 26 
     name rradius
     direction -1 -4.4899e-011 -3.18779e-027   
     length 3.02531   
     axis 180 30 90   XYZ
    dof rx
    limits (-10.0 170.0)
  end
  begin
     id 27 
     name rwrist
     direction -1 -4.4897e-011 -1.03764e-026   
     length 1.51266   
     axis 9.09556e-015 -90 -90   XYZ
    dof ry
    limits (-180.0 0.0)
  end
  begin
     id 28
     name rhand
     direction -1 -4.48941e-011 -2.07528e-026   
     length 0.78389   
     axis 1.3242e-014 -90 -90   XYZ
    dof rx rz
    limits (-90.0 90.0)
           (-45.0 45.0)
  end
  begin
     id 29
     name rfingers
     direction -1 -4.49012e-011 -4.15056e-026   
     length 0.631992   
     axis 2.64841e-014 -90 -90   XYZ
    dof rx
    limits (0.0 90.0)
  end
  begin
     id 30
     name rthumb
     direction -0.707107 -6.3496e-011 0.707107   
     length 0.907418   
     axis -90 -45 -2.85299e-015   XYZ
    dof rx rz
    limits (-45.0 45.0)
           (-45.0 45.0)
  end
:hierarchy
  begin
    root lhipjoint rhipjoint lowerback
    lhipjoint lfemur
    lfemur ltibia
    ltibia lfoot
    lfoot ltoes
    rhipjoint rfemur
    rfemur rtibia
    rtibia rfoot
    rfoot rtoes
    lowerback upperback
    upperback thorax
    thorax lowerneck lclavicle rclavicle
    lowerneck upperneck
    upperneck head
    lclavicle lhumerus
    lhumerus lradius
    lradius lwrist
    lwrist lhand lthumb
    lhand lfingers
    rclavicle rhumerus
    rhumerus rradius
    rradius rwrist
    rwrist rhand rthumb
    rhand rfingers
  end

#!OML:ASF E:\Style3\Style3.ASF
:FULLY-SPECIFIED
:DEGREES
142
root 0.403184 17.3507 1.59966 -167.624 39.4601 -180.096
lowerback -1.52007 -0.120171 -1.11146
upperback -6.7996 0.340829 2.94302
thorax -6.23631 0.489192 3.66454
lowerneck -8.10127 -1.19857 -4.13958
upperneck 14.5974 -2.82035 16.6914
head 6.03682 -0.0592664 5.88527
rclavicle -1.98288e-014 1.35174e-014
rhumerus 4.24429 19.6877 -95.0489
rradius 126.949
rwrist -10.879
rhand -2.96337 6.31523
rfingers 7.12502
rthumb 22.7491 -22.3636
lclavicle -1.98288e-014 1.35174e-014
lhumerus 5.47166 0.61024 98.1997
lradius 99.8698
lwrist 46.5441
lhand -10.123 44.0428
lfingers 7.12502
lthumb 15.8652 73.4128
rfemur -10.9148 -3.10498 21.6576
rtibia 25.7627
rfoot -27.0065 -35.6505
rtoes -4.00483
lfemur -33.7788 -19.2754 -5.70554
ltibia 22.7772
lfoot -6.25048 -4.08709
ltoes -30.9641
143
root 0.388979 17.3538 1.60723 -167.11 39.6657 -179.98
lowerback -1.43801 -0.175851 -1.28644
upperback -6.67401 0.239576 2.89631
thorax -6.14233 0.436536 3.71789
lowerneck -8.05643 -1.18502 -4.02611
upperneck 14.9037 -2.82445 16.5165
head 6.12071 -0.0539154 5.81589
rclavicle 4.39811e-015 3.89618e-014
rhumerus 4.06756 20.309 -94.9586
rradius 127.886
rwrist -9.15397
rhand -2.98724 6.1386
rfingers 7.12502
rthumb 22.7262 -22.543
lclavicle 4.39811e-015 3.89618e-014
lhumerus 5.41367 0.276685 98.0655
lradius 99.7626
lwrist 44.4474
lhand -8.74457 44.9203
lfingers 7.12502
lthumb 17.1923 74.1797
rfemur -11.5556 -3.03172 21.6977
rtibia 25.8751
rfoot -26.9533 -35.4014
rtoes -3.6673
lfemur -34.2021 -19.2605 -5.3519
ltibia 22.5972
lfoot -6.09313 -3.83582
ltoes -31.0898
144
root 0.375874 17.359 1.61363 -166.503 39.9178 -179.767
lowerback -1.34321 -0.332106 -1.48098
upperback -6.62125 0.0231391 3.01839
thorax -6.12584 0.339574 3.96495
lowerneck -7.83569 -1.07335 -4.24557
upperneck 15.3025 -2.66329 16.3454
head 6.18468 0.00487196 5.81989
rclavicle -7.13885e-014 4.45278e-014
rhumerus 3.8849 20.9641 -94.8673
rradius 128.66
rwrist -6.68951
rhand -2.52487 6.51886
rfingers 7.12502
rthumb 23.1699 -22.1076
lclavicle -7.13885e-014 4.45278e-014
lhumerus 5.28702 0.331479 97.9397
lradius 99.952
lwrist 40.6337
lhand -7.0364 44.8949
lfingers 7.12502
lthumb 18.8358 74.003
rfemur -12.2267 -2.88492 21.8151
rtibia 25.9785
rfoot -26.8907 -35.2433
rtoes -3.71588
lfemur -34.652 -19.3188 -4.86037
ltibia 22.4302
lfoot -5.95833 -3.4148
ltoes -30.9644
145
root 0.362401 17.3643 1.61684 -165.81 40.1419 -179.521
lowerback -1.27235 -0.477235 -1.53543
upperback -6.62174 -0.174958 3.05874
thorax -6.15108 0.244166 4.04675
lowerneck -7.70542 -0.997029 -4.48917
upperneck 15.8415 -2.56988 16.3072
head 6.31895 0.0546247 5.87474
rclavicle 5.02925e-014 -2.38542e-014
rhumerus 3.70763 21.5442 -94.8236
rradius 129.477
rwrist -4.28933
rhand -2.14876 6.79862
rfingers 7.12502
rthumb 23.5307 -21.782
lclavicle 5.02925e-014 -2.38542e-014
lhumerus 5.11727 0.253665 97.7109
lradius 100.263
lwrist 35.4005
lhand -4.69539 44.5848
lfingers 7.12502
lthumb 21.0861 73.4583
rfemur -12.9383 -2.83106 21.9642
rtibia 26.0572
rfoot -26.821 -35.0635
rtoes -3.66953
lfemur -35.1967 -19.3979 -4.3071
ltibia 22.3058
lfoot -5.83439 -2.98467
ltoes -30.9705
146
root 0.349588 17.3671 1.61983 -165.162 40.3917 -179.289
lowerback -1.20069 -0.576023 -1.56981
upperback -6.60403 -0.321985 2.9756
thorax -6.16068 0.166363 3.98524
lowerneck -7.66243 -0.963755 -4.62756
upperneck 16.4944 -2.56644 16.4168
head 6.51753 0.0950789 5.96179
rclavicle -3.93469e-014 1.90833e-014
rhumerus 3.59535 22.1141 -94.8521
rradius 130.306
rwrist -1.96607
rhand -2.11195 7.06408
rfingers 7.12502
rthumb 23.566 -21.5121
lclavicle -3.93469e-014 1.90833e-014
lhumerus 4.83744 -0.134792 97.41
lradius 100.732
lwrist 28.9819
lhand -1.51238 44.4644
lfingers 7.12502
lthumb 24.141 72.9654
rfemur -13.6027 -2.88294 22.0964
rtibia 26.1027
rfoot -26.542 -34.8512
rtoes -4.08296
lfemur -35.7131 -19.4936 -3.77241
ltibia 22.2069
lfoot -5.76174 -2.50956
ltoes -30.8646
147
root 0.336761 17.3681 1.62176 -164.524 40.6267 -179.082
lowerback -1.22713 -0.724426 -1.67298
upperback -6.53354 -0.538196 2.93439
thorax -6.05184 0.0554751 4.00758
lowerneck -7.56932 -0.894601 -4.76827
upperneck 17.0335 -2.49176 16.4055
head 6.6618 0.147233 6.00909
rclavicle 3.93842e-014 -2.38542e-014
rhumerus 3.53811 22.8729 -94.8576
rradius 131.106
rwrist 0.641594
rhand -2.52722 7.35414
rfingers 7.12502
rthumb 23.1676 -21.2726
lclavicle 3.93842e-014 -2.38542e-014
lhumerus 4.56317 -0.439368 97.2223
lradius 101.365
lwrist 21.6341
lhand 3.08671 44.7207
lfingers 7.12502
lthumb 28.5434 72.562
rfemur -14.2283 -2.92548 22.1989
rtibia 26.1014
rfoot -26.3281 -34.5474
rtoes -4.09302
lfemur -36.2469 -19.5397 -3.29214
ltibia 22.1449
lfoot -5.78441 -2.05327
ltoes -31.3189
